<svg xmlns="http://www.w3.org/2000/svg" enable-background="new 0 0 68 68" viewBox="0 0 68 68" id="smartphone">
  <path fill="#010101" d="M16.59009,67.00001h34.81982c2.20557,0,4-1.79443,4-4v-58c0-2.20557-1.79443-4-4-4H16.59009
		c-2.20557,0-4,1.79443-4,4v5.77002c0,0.04834,0.00342,0.0957,0.01025,0.14209v42.12402
		c-0.00684,0.04688-0.01025,0.09473-0.01025,0.14355v9.82031C12.59009,65.20557,14.38452,67.00001,16.59009,67.00001z
		 M14.59009,53.32325c0.00684-0.04688,0.01025-0.09473,0.01025-0.14355V10.77003c0-0.04834-0.00342-0.0957-0.01025-0.14209V5.00001
		c0-1.10303,0.89697-2,2-2h34.81982c1.10303,0,2,0.89697,2,2v58c0,1.10302-0.89697,2-2,2H16.59009c-1.10303,0-2-0.89697-2-2
		V53.32325z"></path>
  <path fill="#010101" d="M17.98364 54.17921h32.0415c.55225 0 1-.44775 1-1V10.76222c0-.55225-.44775-1-1-1h-32.0415c-.55225 0-1 .44775-1 1v42.41699C16.98364 53.73146 17.4314 54.17921 17.98364 54.17921zM18.98364 11.76222h30.0415v40.41699h-30.0415V11.76222zM30.00415 7.37745h8c.55225 0 1-.44775 1-1s-.44775-1-1-1h-8c-.55225 0-1 .44775-1 1S29.4519 7.37745 30.00415 7.37745zM34.00415 55.58595c-2.20557 0-4 1.79443-4 4s1.79443 4 4 4 4-1.79443 4-4S36.20972 55.58595 34.00415 55.58595zM34.00415 61.58595c-1.10303 0-2-.89697-2-2s.89697-2 2-2 2 .89697 2 2S35.10718 61.58595 34.00415 61.58595z"></path>
</svg>
